inDegrees=yes
name=ik_Xsens_quaternion
DataType=double
version=3
OpenSimVersion=4.4-2022-07-23-0e9fedc
endheader
time	pelvis_tilt	pelvis_list	pelvis_rotation	pelvis_tx	pelvis_ty	pelvis_tz	hip_flexion_r	hip_adduction_r	hip_rotation_r	knee_angle_r	knee_angle_r_beta	ankle_angle_r	subtalar_angle_r	mtp_angle_r	hip_flexion_l	hip_adduction_l	hip_rotation_l	knee_angle_l	knee_angle_l_beta	ankle_angle_l	subtalar_angle_l	mtp_angle_l	lumbar_extension	lumbar_bending	lumbar_rotation	arm_flex_r	arm_add_r	arm_rot_r	elbow_flex_r	pro_sup_r	wrist_flex_r	wrist_dev_r	arm_flex_l	arm_add_l	arm_rot_l	elbow_flex_l	pro_sup_l	wrist_flex_l	wrist_dev_l
45.36666666666667	-2.429195068177139e-25	-1.266741028857967e-16	2.242350050661533e-25	1.711476178670419e-22	0.93	-1.26686018906167e-20	-2.778735053748081e-31	2.015383501212115e-19	1.484865665578436e-30	4.90815006571229e-16	8.553614098430968e-18	5.912636094351049e-18	-2.210171256711811e-18	3.571384618749838e-18	-6.070131332564653e-19	-2.694569102209284e-28	-1.625345435377431e-17	5.090356936932426e-16	8.88434262087148e-18	-1.988317319950399e-19	-7.811828030837098e-25	2.029250593299262e-18	-2.579518454322281e-25	-1.547702937953721e-23	-1.427101165225395e-23	-558604.4800839998	-2755798.800856777	156573.2055692103	-926862.1448557136	-851908.8712391804	-1.144143050989462e-19	2.203270142020489e-18	241950.805768759	-1779190.030348519	4653686.031922524	572667.6762210518	1298062.083046339	-3.491959649487047e-20	2.547710035146182e-20
45.38333333333333	-5.982662108525366e-26	5.807728036517828e-17	-4.158432539530524e-26	6.913583983741945e-26	0.93	-1.107941690071882e-23	-2.446183422015103e-32	-5.811472843850061e-22	3.919324850774868e-34	3.963030248868698e-16	6.916792625184236e-18	7.925932933155979e-21	2.1139184591042e-19	2.465293329605418e-18	-7.596977981422598e-23	1.49399902752121e-31	2.404489001258471e-22	3.931950514362984e-16	6.862489253038774e-18	1.50859413942842e-18	-7.852348194114386e-25	-1.726633665661402e-17	-1.853554603362767e-26	-1.252052101233146e-20	9.841582201112617e-25	-558604.5141859765	-2755798.705192328	156573.2818912829	-926862.0048692623	-851908.7279540781	8.284084561472448e-21	-4.739515395124341e-18	241950.0022506746	-1779190.313528446	4653685.315689632	572668.1305423633	1298062.601623167	1.218047072617139e-22	-1.759069244687937e-19
45.4	0	0	0	0	0.93	0	0	0	0	0	0	0	0	0	0	0	0	0	0	0	0	0	0	0	0	-558604.5185680784	-2755798.615580312	156573.3794129513	-926861.8996168002	-851908.5502821115	0	0	241949.2029036791	-1779190.575554134	4653684.606471365	572668.5585415342	1298063.066612596	0	0
45.41666666666666	0	0	0	0	0.93	0	0	0	0	2.806228819886656e-39	-5.739718509874451e-42	0	0	0	0	0	0	4.43126522642675e-39	-8.257674718130515e-41	0	0	0	0	0	0	-558604.5086846069	-2755798.531599339	156573.4933863414	-926861.8339183599	-851908.3507639532	0	0	241948.4375514593	-1779190.831922022	4653683.929616566	572668.9904513607	1298063.525177523	0	0
45.43333333333333	0	0	0	0	0.93	0	0	0	0	0	0	0	0	0	0	0	0	0	0	0	0	0	0	0	0	-558604.5068964639	-2755798.44936945	156573.5968085796	-926861.7781226054	-851908.1635821773	0	0	241947.7538430416	-1779191.064684278	4653683.324327441	572669.4000041825	1298063.994427545	0	0
45.45	0	0	0	0	0.93	0	0	0	0	6.738572013247137e-40	0	0	0	0	0	0	0	0	0	0	0	0	0	0	0	-558604.5179851478	-2755798.37548561	156573.7000542551	-926861.7299854371	-851907.993862415	0	0	241947.1562217316	-1779191.267765035	4653682.797778484	572669.7619621156	1298064.433901533	0	0
45.46666666666667	0	0	0	0	0.93	0	0	0	0	0	0	0	0	0	0	0	0	0	0	0	0	0	0	0	0	-558604.5252456984	-2755798.325080106	156573.8155304843	-926861.6890200303	-851907.8340856562	0	0	241947.1052187691	-1779191.420070818	4653682.777114662	572669.9454481178	1298064.754693236	0	0
45.48333333333333	0	0	0	0	0.93	0	0	0	0	0	0	0	0	0	0	0	0	0	0	0	0	0	0	0	0	-558604.5279941853	-2755798.288272974	156573.960292168	-926861.654400505	-851907.68103975	0	0	241946.0552465747	-1779191.603375186	4653681.772815953	572670.4911578882	1298065.305646586	0	0
45.5	0	0	0	0	0.93	0	0	0	0	0	0	0	0	0	0	0	0	0	0	0	0	0	0	0	0	-558604.55367466	-2755798.236270124	156574.0412790625	-926861.602783661	-851907.5591847076	0	0	241945.9891645101	-1779191.74426743	4653681.716129459	572670.6731473125	1298065.656779738	0	0
45.51666666666667	0	0	0	0	0.93	0	0	0	0	0	0	0	0	0	0	0	0	0	0	0	0	0	0	0	0	-558604.5851733821	-2755798.168699993	156574.1354136791	-926861.5578280657	-851907.4143924298	0	0	241944.7478555164	-1779191.941832052	4653680.514995841	572671.2545859978	1298066.227925099	0	0
45.53333333333333	1.18364453257454e-24	6.58445346995264e-15	1.248821298051716e-25	-1.521753380128121e-21	0.93	1.720204397258518e-20	2.85192658591692e-30	-5.997423112714241e-19	0	0	-4.628820134173539e-17	9.837802293294254e-19	2.799296563334884e-19	-3.976861624927578e-16	2.107426633090413e-18	-1.385575492127331e-26	4.812984601657181e-16	0	-4.625891241452528e-17	4.584350991751634e-22	-4.914528586161059e-24	9.307403992488979e-16	9.037557205172036e-25	9.378912272331134e-22	-1.286688162980765e-23	-558604.6279109319	-2755798.09221818	156574.22802876	-926861.5025261244	-851907.2461532532	7.133937757867424e-18	3.315708313618117e-15	241944.6684689124	-1779192.106494023	4653680.458123454	572671.4443322739	1298066.550814169	4.656676462034735e-19	2.434153673621665e-17
45.55	-1.458323927100152e-27	4.519840049203362e-29	-5.286817404796997e-27	5.329622229944604e-29	0.93	6.907719371030868e-29	-1.802368330914875e-19	1.14231132527375e-19	-2.634779926670039e-19	5.132273149968268e-16	8.971046303970594e-18	3.477947639728936e-20	1.249285075842105e-16	4.136431167093591e-19	-1.498444234437447e-19	-1.291759969630517e-18	-8.38149528547722e-20	5.756719255225202e-16	1.005792659761107e-17	6.103019043984704e-19	1.308476136667076e-17	-7.780602418205405e-21	2.177705711741308e-19	-1.527810760770964e-19	3.503464132441481e-19	-558604.6565309996	-2755798.013876559	156574.3248530752	-926861.4367005946	-851907.0918304722	-8.004503119671413e-22	3.67455016858229e-21	241943.4337200237	-1779192.29656772	4653679.248584928	572671.990944811	1298067.0240101	4.939930448902029e-23	-1.110053456150339e-22
45.56666666666666	1.93011173908387e-27	5.115529801218971e-20	-9.684050071546879e-29	-8.824859755058369e-23	0.93	7.402960750628309e-20	-1.184308388823268e-30	1.470473512403915e-18	-4.694584786844759e-31	9.807677313805932e-18	1.711554709167789e-19	-9.938603966752487e-22	-2.826570563634287e-20	2.625589727417644e-18	-1.369577514448895e-18	3.227592469866376e-28	-1.502642331564548e-19	6.532527132663532e-18	1.140145455736263e-19	4.892808219366708e-19	8.371441092047419e-21	1.47254286390407e-18	1.793447372257995e-27	1.54026085170491e-24	3.420469439126188e-24	-558604.6832738292	-2755797.975064371	156574.4413134487	-926861.3756158521	-851906.9406946052	2.934238939001574e-21	-7.782468535394891e-18	241942.7062279468	-1779192.451605795	4653678.558807062	572672.3851347241	1298067.445542686	3.875886242299927e-19	1.540897100661953e-19
